<?xml version="1.0" encoding="utf-8"?>
<!-- Generator: Adobe Illustrator 16.0.4, SVG Export Plug-In . SVG Version: 6.00 Build 0)  -->
<!DOCTYPE svg PUBLIC "-//W3C//DTD SVG 1.1//EN" "http://www.w3.org/Graphics/SVG/1.1/DTD/svg11.dtd">
<svg version="1.1" id="Layer_1" xmlns="http://www.w3.org/2000/svg" xmlns:xlink="http://www.w3.org/1999/xlink" x="0px" y="0px"
	 width="331.361px" height="75.967px" viewBox="0 0 331.361 75.967" enable-background="new 0 0 331.361 75.967"
	 xml:space="preserve">
<g>
	<path d="M1.302,27.875c-3-4.042-1.375-12.667,10.833-12.667c6.458,0,9.708,1.667,15.083,1.667c5.167,0,7.292-2.729,7.292-6.5
		c0-2.042-0.854-4.167-3.188-4.167c-4.5,0-7.188,3.917-7.188,9.792c0,5.208,2.501,7.625,4.667,7.625
		c0.708,0-7.792,4.167-7.792,17.458c0,5,2,10.5,7.25,10.5c7.312,0,11.292-6,11.292-14.375c0-4.5-0.959-6.875-2.751-6.875
		c-2.167,0-5.083,1.958-5.083,12.458c-2.125,0.417-3.917-1-3.917-4.333s2.667-9.375,8.542-9.375c3.333,0,6.458,2.208,6.458,8.25
		c0,7.75-4.25,15.375-14.708,15.375c-6.958,0-11.708-4.125-11.708-12.542c0-10.542,6.083-14.542,9.25-16.125
		c-1.792-0.667-4.5-2.792-4.5-7.208c0-4.25,2.646-11.75,10.188-11.75c3.167,0,5.896,1.5,5.896,5.375c0,4.375-3.625,7.542-9.5,7.542
		C10.843,18,4.01,19.125,1.302,27.875z"/>
	<path d="M37.093,55.542c8.208,0,12.917-13.875,12.917-26.958c0-0.75,5.542,0.708,5.542,2.042s-1.917,7.583-1.917,15.583
		c0,2.125,0.25,3.583,2.333,3.583c4.042,0,9.646-5.713,9.833-9.25c0.333-6.292,3.708-11.75,8.083-11.75
		c3.167,0,4.917,1.583,4.917,4.917c0,5.917-10.542,6.375-10.417,6.5s0.292-1.458,0.292-1.458s7.125,0.75,7.125-5.125
		c0-1.583-0.708-3.208-1.917-3.208s-5.125,2.292-5.125,13.708c0,6.167,1.292,9.417,5.083,9.417c2.75,0,4.625-3.417,3.333-6
		c-0.884-1.767,2.75-2.792,2.75,1.042c0,3.103-2.167,5.875-6.125,5.875c-6.208,0-8.083-6.25-8.083-10.208
		c-1.792,4.333-7.5,7.208-10.542,7.208s-4.792-1.708-4.792-6.292C50.385,42,50.718,35,50.718,35
		c-0.917,7.208-4.833,25.333-12,25.333C37.76,60.333,36.302,55.542,37.093,55.542z"/>
	<path d="M85.301,30.792c0,1.208-0.875,13.417-0.875,15.958c0,0.958,3.167,2.319,3.167,1.625c0-1.625,0.833-15.5,0.833-16.583
		C88.426,31.219,85.301,30.136,85.301,30.792z"/>
	<path d="M96.843,31.167c0,1.792-0.625,10.166-0.625,13.208c0,2.708,1.792,4.25,3.875,4.25c4.833,0,7.896-4.271,7.896-7.104
		s-0.75-3.25-0.75-1.375c0,3.042-2.271,7.396-6.479,7.396c-1.083,0-1.667-1.458-1.667-3.583c0-1.5,1.083-9.833,1.083-11.75
		C100.177,31.296,96.843,30.583,96.843,31.167z"/>
	<path d="M87.26,39.625c1.375,0.292,9.292-1.292,10.042-2.75s0.417,1.417,0.417,1.417c-1.292,1.25-9.792,2.833-10.542,2.375
		S87.26,39.625,87.26,39.625z"/>
	<path d="M106.426,40.25c0-6.625,4.125-13.75,11.333-13.75c2.625,0,4.417,1.875,4.417,5.417c0,2.167-1.833,5.792-4.417,5.792
		s-2.208-3.167-2.208-3.167s4,1.667,4-2.75c0-2.833-0.75-3.875-2.25-3.875c-2.292,0-6.917,4.042-6.917,12.479
		c0,3.375,0.5,7.562,3.875,7.562s5.25-2.333,6.333-4.75c0.583-3.792,1.125-9.417,1.292-11.125s4.979-0.833,4.562,1
		s-2.083,9.458-2.083,14.5c0,4,1,6.292,3.25,6.292c2.708,0,3.5-2.625,3.5-5.333s-1.958-5.583-1.958-5.583s5.104-1,5.104,5.125
		c0,4.917-2.896,7.25-6.729,7.25c-4.646,0-6.979-4.416-6.979-10.208c-1,3.167-4.5,5.167-6.583,5.167
		C108.468,50.292,106.426,47,106.426,40.25z"/>
	<path d="M165.01,40.417c0-3.583-2.292-6.417-6.042-6.417c-4.333,0-8.792,4.042-8.792,9.625c0,7.375,4.5,11.083,10.292,11.083
		c9.375,0,16.5-7.625,16.5-16.333c0-9.75-6.125-13-6.125-13s5.291-3.333,5.291-11.083c0-5.583-2.334-8.125-7.375-8.125
		c-3.833,0-8.042,2.958-8.042,6.875c0,5.042,3.458,4.333,3.458,4.333s-0.958-1.208-0.958-3.625c0-3.25,2.083-6.333,5.708-6.333
		c2.668,0,4.125,2.417,4.125,7.083c0,6-3.207,10.5-7.207,11.333c2.916,2.458,6.291,5.417,6.291,13.083
		c0,6.208-4.083,14.083-11.292,14.083c-4.25,0-6.438-3.625-6.438-9.584c0-4.75,1.854-8.25,4.354-8.25c2.125,0,3.458,1.333,3.458,5
		c0,3-1.958,6.208-1.958,6.208C160.259,46.375,165.01,46.125,165.01,40.417z"/>
	<path d="M181.469,44.167c0-10.062,6.013-16.083,12.291-16.083c2.75,0,4.334,1.938,4.334,5.083c0,6-5.75,5.542-5.75,4.375
		c0.874,0,3.541-1.333,3.541-4.375c0-2.167-0.688-3.667-2.167-3.667c-3.833,0-7.958,5.979-7.958,14.146
		c0,4.125,0.542,6.854,3.458,6.854c4.084,0,6.459-4.417,7.209-8.958s1.166-5.625,1.333-6.875s5.333-2.375,4.417,0.958
		c-0.584,2.124-3.125,8.306-3.125,13.125c0,3.5,1.083,4.791,3.25,4.791c3.541,0,7.541-2.791,11.625-11.042
		c4.234-8.554,6.334-12.667,8.792-13.125c0.787-0.146,1.247,3.37,0.374,3.708c-2.042,0.792-4.708,4.042-8.166,10.625
		c-3.658,6.964-7.959,11-12.917,11c-4.25,0-6.166-2.833-6.166-8.167c-1.334,3.479-4.126,5.958-7.084,5.958
		C184.344,52.5,181.469,49.792,181.469,44.167z"/>
	<path d="M207.76,33.125c0,1.958,3.979,20.333,14.5,20.333c6.688,0,8.125-5.542,8.125-5.542l-0.667-0.708c0,0-1.396,5-6.708,5
		c-7.958,0-11.125-15.375-11.125-19.292C211.885,32.25,207.76,32.333,207.76,33.125z"/>
	<path d="M227.968,45.292c0-7.417,6.208-14.333,11.375-14.333c3.168,0,5.042,1.208,5.042,4.125c0,2.875-2.042,4.5-4.375,4.5
		c-2.375,0-2.334-2-2.334-2s4,0.75,4-2.708c0-1.75-0.583-2.958-2.208-2.958c-3.5,0-7.208,5.708-7.208,12.458
		c0,2.792,0.375,4.917,2.083,4.917c1.875,0,5.333-2.292,5.333-7.292c0-0.465,3.751-0.632,3.751,0.167c0,1.5-0.625,2.417-0.625,5.208
		c0,1.542,0.417,2.5,1.5,2.5c3.583,0,10.876-10.416,10.876-18.125s-0.085,0.5-0.085,4.208s-6.541,15.958-12.124,15.958
		c-2.5,0-3.626-2.042-3.626-5.333c-1.333,3.333-3.416,5.208-6.708,5.208S227.968,48.792,227.968,45.292z"/>
	<path d="M254.802,21.5c-0.267,2.467-4.667,35.437-4.667,46.896c0,8.125,1.584,7.562,1.584,7.562s6.543-47.875,6.959-50.75
		C258.952,23.313,254.928,20.333,254.802,21.5z"/>
	<path d="M254.969,43.5c1.124-4.292,6.521-11.375,10.604-11.375c1.417,0,2.062,0.625,2.062,2.708s-1.688,6.521-1.688,10.438
		c0,2.875,0.562,4.354,2.105,4.354c3.957,0,8.916-4.542,8.916-8s0.125-0.375,0.125,1.875s-4.834,8.042-10.333,8.042
		c-3.125,0-4.667-2.25-4.667-5.667s1.271-8.125,1.271-10c0-3.042-8.104,5.396-8.354,9.167"/>
	<path d="M282.969,31.25c-2.082,0-3.917,1.375-4.751,3.458c-0.375,0.083-0.679,0.13-0.819,0.38c-0.934,1.66-1.471,3.666-1.471,5.62
		c0,4.333,1.54,7.042,4.666,7.042c3.999,0,7.125-5.917,7.125-10.75C287.719,33.084,285.969,31.25,282.969,31.25z M281.135,46.458
		c-1.583,0,0.416-7.161,0.416-10.25c0-0.342-1.541-1.167-2.083-1.25c0.037-0.883,1.542-2.75,3.625-2.75
		c2.708,0,2.876,2.5,2.876,4.584C285.969,42.833,283.885,46.458,281.135,46.458z"/>
	<path d="M292.636,35.833C292.636,4.75,300.551,0,304.052,0c3.5,0,4.709,3.083,4.709,7.375s-2.251,10.708-8.584,10.708
		c-4.625,0-12.792-2.458-18.333-2.458c-6.543,0-6.458,6.042-6.458,6.042s-2.918-0.333-2.918-3.417c0-3.124,3.662-5.292,8.042-5.292
		c6.875,0,13.542,4.042,19.709,4.042c5.791,0,6.458-6.083,6.458-10s-0.916-5.625-2.666-5.625c-2.585,0-7.167,4.917-7.167,29.042
		c0,8.958-0.583,19.875,1.875,19.875s6.125-4.833,6.125-12.292c0-1.667-0.25-4.25-1.625-4.25c-0.626,0-1.75,1.083-1.75,2.875
		s0.708,4.708,4.25,4.708s9-3.208,9-3.208l0.458,1.042c0,0-5.5,3.042-9.459,3.042c-3.543,0-5.333-2.667-5.333-5.625
		c0-2.625,1.458-4.75,3.042-4.75c1.959,0,3.709,1.167,3.709,5.833c0,7.458-5.583,13.583-8.875,13.583S292.636,45.75,292.636,35.833z
		"/>
	<path d="M312.427,42.583c0-8.917,4.916-14.458,10.708-14.458c2.79,0,4.291,2.042,4.291,4.417c0,2.75-1.833,5.875-3.666,5.875
		c-2.501,0-1.916-2.25-1.916-2.25s3.998-0.125,3.998-3.958c0-1.75-0.916-2.958-2.749-2.958c-2.958,0-6.124,6.042-6.124,12.625
		s0.667,8.583,2.792,8.583s5.25-4.042,5.708-5.917s1.417-7.208,1.667-9.125c0.159-1.224,4.544,0.211,4.207,1.583
		c-0.542,2.208-2.417,7.083-2.417,12.292s2.335,7.75,2.335,7.75s-0.084,0.625-0.667,0.5s-5.25-2.375-5.25-10.25
		c-1.667,3-3.333,5.083-6.708,5.083C315.011,52.375,312.427,49.708,312.427,42.583z"/>
</g>
</svg>
